{
	"asset" : {
		"generator" : "FME 2022.2.1.0",
		"version" : "2.0"
	},
	"images" : [
		{
			"uri" : "textures/Texture.jpg"
		}
	],
	"samplers" : [
		{
			"wrapS" : 10497,
			"wrapT" : 10497,
			"magFilter" : 9729,
			"minFilter" : 9986
		}
	],
	"textures" : [
		{
			"source" : 0,
			"sampler" : 0
		}
	],
	"materials" : [
		{
			"pbrMetallicRoughness" : {
				"baseColorFactor" : [ 1, 1, 1, 1 ],
				"roughnessFactor" : 0.30000000000000004,
				"metallicFactor" : 0
			}
		},
		{
			"name" : "terrainTexture",
			"pbrMetallicRoughness" : {
				"baseColorTexture" : {
					"index" : 0,
					"texCoord" : 0
				},
				"roughnessFactor" : 0.30000000000000004,
				"metallicFactor" : 0
			}
		}
	],
	"meshes" : [
		{
			"primitives" : [
				{
					"attributes" : {
						"POSITION" : 0,
						"COLOR_0" : 1
					},
					"indices" : 2,
					"material" : 0,
					"mode" : 4
				}
			]
		},
		{
			"primitives" : [
				{
					"attributes" : {
						"POSITION" : 3,
						"COLOR_0" : 4
					},
					"indices" : 5,
					"material" : 0,
					"mode" : 4
				}
			]
		},
		{
			"primitives" : [
				{
					"attributes" : {
						"POSITION" : 6,
						"COLOR_0" : 7
					},
					"indices" : 8,
					"material" : 0,
					"mode" : 4
				}
			]
		},
		{
			"primitives" : [
				{
					"attributes" : {
						"POSITION" : 9,
						"COLOR_0" : 10
					},
					"indices" : 11,
					"material" : 0,
					"mode" : 4
				}
			]
		},
		{
			"primitives" : [
				{
					"attributes" : {
						"POSITION" : 12,
						"TEXCOORD_0" : 13
					},
					"indices" : 14,
					"material" : 1,
					"mode" : 4
				}
			]
		}
	],
	"nodes" : [
		{
			"matrix" : [ 1, 0, 0, 0, 0, 0, -1, 0, 0, 1, 0, 0, 0, 0, 0, 1 ],
			"children" : [ 1, 2, 3, 4, 5 ]
		},
		{
			"mesh" : 0
		},
		{
			"mesh" : 1
		},
		{
			"mesh" : 2
		},
		{
			"mesh" : 3
		},
		{
			"mesh" : 4
		}
	],
	"scenes" : [
		{
			"nodes" : [ 0 ]
		}
	],
	"scene" : 0,
	"accessors" : [
		{
			"bufferView" : 0,
			"byteOffset" : 0,
			"componentType" : 5126,
			"count" : 238,
			"type" : "VEC3",
			"min" : [ 2598473.25, 1194424.125, 561.0670166015625 ],
			"max" : [ 2602159.75, 1197002.125, 812.905029296875 ]
		},
		{
			"bufferView" : 1,
			"byteOffset" : 0,
			"componentType" : 5126,
			"count" : 238,
			"type" : "VEC3"
		},
		{
			"bufferView" : 2,
			"byteOffset" : 0,
			"componentType" : 5121,
			"count" : 1200,
			"type" : "SCALAR",
			"min" : [ 0 ],
			"max" : [ 237 ]
		},
		{
			"bufferView" : 3,
			"byteOffset" : 0,
			"componentType" : 5126,
			"count" : 36223,
			"type" : "VEC3",
			"min" : [ 2598101.25, 1193990.375, 538.4340209960938 ],
			"max" : [ 2602510.5, 1197012.5, 987.5120239257812 ]
		},
		{
			"bufferView" : 4,
			"byteOffset" : 0,
			"componentType" : 5126,
			"count" : 36223,
			"type" : "VEC3"
		},
		{
			"bufferView" : 5,
			"byteOffset" : 0,
			"componentType" : 5123,
			"count" : 298788,
			"type" : "SCALAR",
			"min" : [ 0 ],
			"max" : [ 36222 ]
		},
		{
			"bufferView" : 6,
			"byteOffset" : 0,
			"componentType" : 5126,
			"count" : 32806,
			"type" : "VEC3",
			"min" : [ 2598101.25, 1193989.125, 545.0460205078125 ],
			"max" : [ 2602511.25, 1197013.875, 987.5120239257812 ]
		},
		{
			"bufferView" : 7,
			"byteOffset" : 0,
			"componentType" : 5126,
			"count" : 32806,
			"type" : "VEC3"
		},
		{
			"bufferView" : 8,
			"byteOffset" : 0,
			"componentType" : 5123,
			"count" : 292692,
			"type" : "SCALAR",
			"min" : [ 0 ],
			"max" : [ 32805 ]
		},
		{
			"bufferView" : 9,
			"byteOffset" : 0,
			"componentType" : 5126,
			"count" : 974,
			"type" : "VEC3",
			"min" : [ 2598125, 1194000, 480 ],
			"max" : [ 2602500, 1197000, 888.77099609375 ]
		},
		{
			"bufferView" : 10,
			"byteOffset" : 0,
			"componentType" : 5126,
			"count" : 974,
			"type" : "VEC3"
		},
		{
			"bufferView" : 11,
			"byteOffset" : 0,
			"componentType" : 5123,
			"count" : 4377,
			"type" : "SCALAR",
			"min" : [ 0 ],
			"max" : [ 973 ]
		},
		{
			"bufferView" : 12,
			"byteOffset" : 0,
			"componentType" : 5126,
			"count" : 7826,
			"type" : "VEC3",
			"min" : [ 2598125, 1194000, 509.47900390625 ],
			"max" : [ 2602500, 1197000, 937.666015625 ]
		},
		{
			"bufferView" : 13,
			"byteOffset" : 0,
			"componentType" : 5126,
			"count" : 7826,
			"type" : "VEC2",
			"min" : [ 0, 0 ],
			"max" : [ 1, 1 ]
		},
		{
			"bufferView" : 14,
			"byteOffset" : 0,
			"componentType" : 5123,
			"count" : 45489,
			"type" : "SCALAR",
			"min" : [ 0 ],
			"max" : [ 7825 ]
		}
	],
	"bufferViews" : [
		{
			"buffer" : 0,
			"byteOffset" : 0,
			"byteLength" : 2856,
			"target" : 34962
		},
		{
			"buffer" : 0,
			"byteOffset" : 2856,
			"byteLength" : 2856,
			"target" : 34962
		},
		{
			"buffer" : 0,
			"byteOffset" : 5712,
			"byteLength" : 1200,
			"target" : 34963
		},
		{
			"buffer" : 0,
			"byteOffset" : 6912,
			"byteLength" : 434676,
			"target" : 34962
		},
		{
			"buffer" : 0,
			"byteOffset" : 441588,
			"byteLength" : 434676,
			"target" : 34962
		},
		{
			"buffer" : 0,
			"byteOffset" : 876264,
			"byteLength" : 597576,
			"target" : 34963
		},
		{
			"buffer" : 0,
			"byteOffset" : 1473840,
			"byteLength" : 393672,
			"target" : 34962
		},
		{
			"buffer" : 0,
			"byteOffset" : 1867512,
			"byteLength" : 393672,
			"target" : 34962
		},
		{
			"buffer" : 0,
			"byteOffset" : 2261184,
			"byteLength" : 585384,
			"target" : 34963
		},
		{
			"buffer" : 0,
			"byteOffset" : 2846568,
			"byteLength" : 11688,
			"target" : 34962
		},
		{
			"buffer" : 0,
			"byteOffset" : 2858256,
			"byteLength" : 11688,
			"target" : 34962
		},
		{
			"buffer" : 0,
			"byteOffset" : 2869944,
			"byteLength" : 8754,
			"target" : 34963
		},
		{
			"buffer" : 0,
			"byteOffset" : 2878700,
			"byteLength" : 93912,
			"target" : 34962
		},
		{
			"buffer" : 0,
			"byteOffset" : 2972612,
			"byteLength" : 62608,
			"target" : 34962
		},
		{
			"buffer" : 0,
			"byteOffset" : 3035220,
			"byteLength" : 90978,
			"target" : 34963
		}
	],
	"buffers" : [
		{
			"uri" : "1166-44.bin",
			"byteLength" : 3126198
		}
	]
}